<?xml version="1.0" standalone="no"?>
<!DOCTYPE svg PUBLIC "-//W3C//DTD SVG 20010904//EN"
 "http://www.w3.org/TR/2001/REC-SVG-20010904/DTD/svg10.dtd">
<svg version="1.0" xmlns="http://www.w3.org/2000/svg"
 width="500.000000pt" height="500.000000pt" viewBox="0 0 500.000000 500.000000"
 preserveAspectRatio="xMidYMid meet">

<g transform="translate(0.000000,500.000000) scale(0.100000,-0.100000)"
fill="#000000" stroke="none">
<path d="M0 2500 l0 -2500 2500 0 2500 0 0 2500 0 2500 -2500 0 -2500 0 0
-2500z m1086 1640 c84 -61 130 -96 186 -143 24 -19 90 -72 148 -116 179 -139
412 -322 420 -331 3 -4 16 -14 30 -24 l25 -18 -27 6 c-14 3 -33 9 -41 12 -17
6 -17 6 -187 -236 -48 -69 -93 -124 -99 -122 -7 1 -10 -2 -7 -7 4 -5 2 -12 -3
-15 -12 -8 -18 10 -26 80 -3 32 -10 70 -15 84 -5 14 -16 52 -26 85 -10 33 -21
62 -24 65 -4 3 -26 54 -49 113 -23 59 -68 163 -100 230 -57 121 -59 124 -170
227 -61 58 -117 105 -123 105 -6 0 -15 -12 -19 -27 -4 -15 -17 -41 -29 -59
l-23 -31 12 -216 c7 -120 15 -246 18 -282 3 -36 3 -63 0 -60 -6 6 -27 165 -33
255 -3 57 -17 212 -30 341 l-6 59 48 38 c26 20 54 37 64 37 9 0 48 -23 86 -50z
m2924 40 c8 -5 12 -10 8 -11 -5 -1 -11 -2 -15 -3 -21 -4 -92 -54 -86 -60 4 -4
0 -4 -10 0 -13 5 -16 2 -11 -10 5 -12 2 -15 -12 -9 -12 4 -15 3 -10 -5 5 -8 1
-10 -10 -5 -12 4 -15 3 -10 -6 9 -14 -12 -43 -25 -35 -5 3 -9 -4 -9 -15 0 -12
-6 -21 -13 -21 -7 0 -30 -19 -52 -42 -22 -24 -42 -42 -46 -41 -4 1 -10 -9 -13
-22 -4 -14 -11 -25 -17 -25 -12 0 -119 -110 -119 -122 0 -3 -6 -13 -12 -20
-56 -58 -139 -186 -195 -298 -9 -19 -21 -38 -26 -41 -6 -4 -7 -15 -3 -25 6
-17 6 -17 -13 1 -12 10 -42 47 -68 83 l-48 64 -47 -4 -47 -5 84 66 c200 158
356 279 590 457 77 58 156 119 175 135 40 32 40 32 60 19z m-1550 -1025 c0
-389 -2 -444 -15 -439 -38 15 -120 141 -170 263 -29 69 -78 187 -110 261 -107
252 -114 271 -102 275 20 6 371 82 385 84 9 1 12 -94 12 -444z m-1430 128 c38
-104 70 -175 83 -187 12 -10 36 -29 52 -43 17 -14 21 -20 10 -15 -11 6 -38 27
-61 49 -35 33 -47 57 -94 188 -29 83 -55 156 -58 163 -2 6 -2 12 1 12 3 0 33
-75 67 -167z m248 -565 c-145 -509 -148 -525 -90 -514 15 3 44 8 65 12 l37 6
-42 -72 c-24 -39 -47 -79 -53 -88 -37 -63 -75 -130 -75 -134 0 -5 149 -137
300 -265 47 -40 108 -93 135 -118 l50 -45 -110 57 c-60 31 -219 114 -353 185
-134 70 -253 130 -266 134 -30 7 -41 -9 -25 -37 16 -31 159 -402 156 -406 -7
-7 -257 578 -257 601 0 9 75 95 218 250 45 49 82 93 82 98 0 20 -34 19 -82 -1
-45 -19 -50 -19 -37 -4 118 141 358 413 364 413 2 0 -6 -33 -17 -72z m660 -50
c20 -20 14 -75 -10 -98 -25 -23 -32 -24 -59 -10 -25 14 -25 54 2 91 21 31 47
37 67 17z m1186 -21 c48 -63 0 -122 -54 -65 -24 26 -26 55 -3 80 22 25 28 23
57 -15z m-589 -147 c11 -5 15 -9 8 -9 -15 -1 12 -87 37 -116 10 -11 29 -43 43
-71 l25 -52 -73 -72 -74 -73 -43 36 c-130 109 -125 103 -105 125 21 23 19 56
-3 59 -13 2 -55 -44 -108 -117 -11 -15 0 -34 99 -156 61 -77 124 -150 140
-164 16 -14 29 -30 29 -35 0 -11 -192 -65 -230 -65 -13 0 -75 16 -139 36
l-117 36 -43 70 -44 71 12 66 c8 41 26 88 48 126 72 120 72 120 275 221 183
91 220 103 263 84z m-40 -720 c3 -5 0 -10 -7 -10 -8 0 -9 -3 -3 -8 14 -10 17
-52 5 -67 -5 -6 -11 -35 -12 -63 -2 -37 -7 -52 -17 -52 -30 0 -178 91 -221
136 -29 30 -38 44 -25 40 47 -17 75 -16 165 8 114 29 107 28 115 16z m-1465
-395 c0 -5 -5 -3 -10 5 -5 8 -10 20 -10 25 0 6 5 3 10 -5 5 -8 10 -19 10 -25z"/>
</g>
</svg>
